# Blender v3.0.1 OBJ File: ''
# www.blender.org

mtllib minirt-assets/cornellbox/cornellbox.mtl
o CornellBox-Empty-RG.002

v -1.010000 -0.000000 0.990000
v 1.000000 -0.000000 0.990000
v 1.000000 0.000000 -1.040000
v -0.990000 0.000000 -1.040000
v -1.020000 1.990000 0.990000
v -1.020000 1.990000 -1.040000
v 1.000000 1.990000 -1.040000
v 1.000000 1.990000 0.990000
v -0.990000 0.000000 -1.040000
v 1.000000 0.000000 -1.040000
v 1.000000 1.990000 -1.040000
v -1.020000 1.990000 -1.040000
v 1.000000 0.000000 -1.040000
v 1.000000 -0.000000 0.990000
v 1.000000 1.990000 0.990000
v 1.000000 1.990000 -1.040000
v -1.010000 -0.000000 0.990000
v -0.990000 0.000000 -1.040000
v -1.020000 1.990000 -1.040000
v -1.020000 1.990000 0.990000
v -0.240000 1.980000 0.160000
v -0.240000 1.980000 -0.220000
v 0.230000 1.980000 -0.220000
v 0.230000 1.980000 0.160000

vt 0.0 0.0
vt 1.0 0.0
vt 1.0 1.0
vt 0.0 1.0

vn 0.0000 1.0000 0.0000
vn 0.0000 -1.0000 0.0000
vn 0.0000 -0.0000 1.0000
vn -1.0000 -0.0000 0.0000
vn 1.0000 0.0050 0.0000
vn 0.9998 0.0151 0.0099

usemtl floor.008
s off
f 2/1/1 4/3/1 1/4/1
f 2/1/1 3/2/1 4/3/1

usemtl ceiling.008
f 6/1/2 8/3/2 5/4/2
f 6/1/2 7/2/2 8/3/2

usemtl backWall.008
f 9/1/3 11/3/3 12/4/3
f 9/1/3 10/2/3 11/3/3

usemtl rightWall.008
f 14/1/4 16/3/4 13/4/4
f 14/1/4 15/2/4 16/3/4

usemtl leftWall.008
f 17/1/5 19/3/5 20/4/5
f 17/1/6 18/2/6 19/3/6

usemtl light.008
f 22/1/2 24/3/2 21/4/2
f 22/1/2 23/2/2 24/3/2
