# Blender v3.0.1 OBJ File: ''
# www.blender.org
mtllib minirt-assets/cornel/cornell-box.mtl
o Cube
v 5.000000 10.000000 -5.000000
v 5.000000 0.000000 -5.000000
v 5.000000 10.000000 5.000000
v 5.000000 0.000000 5.000000
v -5.000000 10.000000 -5.000000
v -5.000000 0.000000 -5.000000
v -5.000000 10.000000 5.000000
v -5.000000 0.000000 5.000000
vt 0.625000 0.750000
vt 0.875000 0.500000
vt 0.625000 0.500000
vt 0.375000 1.000000
vt 0.375000 0.750000
vt 0.125000 0.750000
vt 0.375000 0.500000
vt 0.125000 0.500000
vt 0.875000 0.750000
vt 0.625000 1.000000
vt 0.625000 0.250000
vt 0.375000 0.250000
vt 0.625000 0.000000
vt 0.375000 0.000000
vn 0.0000 -1.0000 0.0000
vn 0.0000 0.0000 -1.0000
vn 0.0000 1.0000 0.0000
vn 0.0000 0.0000 1.0000
vn -1.0000 0.0000 0.0000
vn 1.0000 0.0000 0.0000
usemtl Material
s off
f 3/1/1 5/2/1 1/3/1
f 8/6/3 2/7/3 6/8/3
f 3/1/1 7/9/1 5/2/1
f 8/6/3 4/5/3 2/7/3
usemtl BackWall
f 2/7/4 5/11/4 6/12/4
f 2/7/4 1/3/4 5/11/4
usemtl RightWall
f 4/5/5 1/3/5 2/7/5
f 4/5/5 3/1/5 1/3/5
usemtl LeftWall
f 6/12/6 7/13/6 8/14/6
f 6/12/6 5/11/6 7/13/6
o LightCeiling_Cube.001
<<<<<<< HEAD
v -1.600000 9.990000 1.600000
v -1.600000 9.990000 1.600000
v -1.600000 9.990000 -1.600000
v -1.600000 9.990000 -1.600000
v 1.600000 9.990000 1.600000
v 1.600000 9.990000 1.600000
v 1.600000 9.990000 -1.600000
v 1.600000 9.990000 -1.600000
=======
v -1.000000 9.940000 1.000000
v -1.000000 9.960000 1.000000
v -1.000000 9.940000 -1.000000
v -1.000000 9.960000 -1.000000
v 1.000000 9.940000 1.000000
v 1.000000 9.960000 1.000000
v 1.000000 9.940000 -1.000000
v 1.000000 9.960000 -1.000000
>>>>>>> bvh
vt 0.625000 0.000000
vt 0.375000 0.250000
vt 0.375000 0.000000
vt 0.625000 0.250000
vt 0.375000 0.500000
vt 0.625000 0.500000
vt 0.375000 0.750000
vt 0.625000 0.750000
vt 0.375000 1.000000
vt 0.125000 0.750000
vt 0.125000 0.500000
vt 0.875000 0.500000
vt 0.625000 1.000000
vt 0.875000 0.750000
vn -1.0000 0.0000 0.0000
vn 0.0000 0.0000 -1.0000
vn 1.0000 0.0000 0.0000
vn 0.0000 0.0000 1.0000
vn 0.0000 -1.0000 0.0000
vn 0.0000 1.0000 0.0000
usemtl LightCeilling
s off
<<<<<<< HEAD
f 15/19/11 9/24/11 11/25/11
f 15/19/11 13/21/11 9/24/11

=======
f 10/15/7 11/16/7 9/17/7
f 12/18/8 15/19/8 11/16/8
f 16/20/9 13/21/9 15/19/9
f 14/22/10 9/23/10 13/21/10
f 15/19/11 9/24/11 11/25/11
f 12/26/12 14/22/12 16/20/12
f 10/15/7 12/18/7 11/16/7
f 12/18/8 16/20/8 15/19/8
f 16/20/9 14/22/9 13/21/9
f 14/22/10 10/27/10 9/23/10
f 15/19/11 13/21/11 9/24/11
f 12/26/12 10/28/12 14/22/12
>>>>>>> bvh
