# Blender v3.0.1 OBJ File: ''
# www.blender.org
mtllib minirt-assets/cornel/demo.mtl
o Plane
v -1.000000 0.000000 1.000000
v 1.000000 0.000000 1.000000
v -1.000000 0.000000 -1.000000
v 1.000000 0.000000 -1.000000
vt 1.000000 0.000000
vt 0.000000 1.000000
vt 0.000000 0.000000
vt 1.000000 1.000000
vn 0.0000 1.0000 0.0000
usemtl Material
s off
f 2/1/1 3/2/1 1/3/1
f 2/1/1 4/4/1 3/2/1
o Plane.001
v -1.000000 0.000000 0.999991
v 1.000000 0.000000 0.999991
v -1.000000 2.000000 1.000009
v 1.000000 2.000000 1.000009
vt 1.000000 0.000000
vt 0.000000 1.000000
vt 0.000000 0.000000
vt 1.000000 1.000000
vn 0.0000 -0.0000 1.0000
usemtl Material
s off
f 6/5/2 7/6/2 5/7/2
f 6/5/2 8/8/2 7/6/2
o Plane.004
v -0.999938 0.000000 -1.000053
v -1.000044 0.000000 0.999947
v -0.999956 2.000000 -1.000053
v -1.000062 2.000000 0.999947
vt 1.000000 0.000000
vt 0.000000 1.000000
vt 0.000000 0.000000
vt 1.000000 1.000000
vn -1.0000 -0.0000 -0.0001
usemtl Material
s off
f 10/9/3 11/10/3 9/11/3
f 10/9/3 12/12/3 11/10/3
o Plane.003
v 1.000062 0.000000 -0.999947
v 0.999956 0.000000 1.000053
v 1.000044 2.000000 -0.999947
v 0.999938 2.000000 1.000053
vt 1.000000 0.000000
vt 0.000000 1.000000
vt 0.000000 0.000000
vt 1.000000 1.000000
vn -1.0000 -0.0000 -0.0001
usemtl Material
s off
f 14/13/4 15/14/4 13/15/4
f 14/13/4 16/16/4 15/14/4
o Plane.005
v -1.000000 2.000000 1.000000
v 1.000000 2.000000 1.000000
v -1.000000 2.000000 -1.000000
v 1.000000 2.000000 -1.000000
vt 1.000000 0.000000
vt 0.000000 1.000000
vt 0.000000 0.000000
vt 1.000000 1.000000
vn 0.0000 1.0000 0.0000
usemtl Material
s off
f 18/17/5 19/18/5 17/19/5
f 18/17/5 20/20/5 19/18/5
o Plane.016_Plane.018
v -1.000000 0.000000 -1.000000
v 1.000000 0.000000 -1.000000
v -1.000000 2.000000 -1.000000
v 1.000000 2.000000 -1.000000
v -0.818182 0.000000 -1.000000
v -0.636364 0.000000 -1.000000
v -0.454545 0.000000 -1.000000
v -0.272727 0.000000 -1.000000
v -0.090909 0.000000 -1.000000
v 0.090909 0.000000 -1.000000
v 0.272727 0.000000 -1.000000
v 0.454545 0.000000 -1.000000
v 0.636364 0.000000 -1.000000
v 0.818182 0.000000 -1.000000
v 0.818182 2.000000 -1.000000
v 0.636364 2.000000 -1.000000
v 0.454545 2.000000 -1.000000
v 0.272727 2.000000 -1.000000
v 0.090909 2.000000 -1.000000
v -0.090909 2.000000 -1.000000
v -0.272727 2.000000 -1.000000
v -0.454545 2.000000 -1.000000
v -0.636364 2.000000 -1.000000
v -0.818182 2.000000 -1.000000
vt 0.090909 0.000000
vt 0.000000 1.000000
vt 0.000000 0.000000
vt 0.090909 1.000000
vt 0.272727 0.000000
vt 0.181818 1.000000
vt 0.181818 0.000000
vt 0.272727 1.000000
vt 0.454545 0.000000
vt 0.363636 1.000000
vt 0.363636 0.000000
vt 0.454545 1.000000
vt 0.545455 0.000000
vt 0.727273 0.000000
vt 0.636364 1.000000
vt 0.636364 0.000000
vt 0.909091 0.000000
vt 0.818182 1.000000
vt 0.818182 0.000000
vt 0.545455 1.000000
vt 0.727273 1.000000
vt 0.909091 1.000000
vt 1.000000 0.000000
vt 1.000000 1.000000
vn 0.0000 -0.0000 1.0000
usemtl cyan
s off
f 25/21/6 23/22/6 21/23/6
f 25/21/6 44/24/6 23/22/6
usemtl blue
f 27/25/6 43/26/6 26/27/6
f 27/25/6 42/28/6 43/26/6
usemtl magenta
f 29/29/6 41/30/6 28/31/6
f 29/29/6 40/32/6 41/30/6
usemtl base
f 26/27/6 44/24/6 25/21/6
f 28/31/6 42/28/6 27/25/6
f 30/33/6 40/32/6 29/29/6
f 32/34/6 38/35/6 31/36/6
f 34/37/6 36/38/6 33/39/6
f 26/27/6 43/26/6 44/24/6
f 28/31/6 41/30/6 42/28/6
f 30/33/6 39/40/6 40/32/6
f 32/34/6 37/41/6 38/35/6
f 34/37/6 35/42/6 36/38/6
usemtl orange
f 31/36/6 39/40/6 30/33/6
f 31/36/6 38/35/6 39/40/6
usemtl yellow
f 33/39/6 37/41/6 32/34/6
f 33/39/6 36/38/6 37/41/6
usemtl green
f 22/43/6 35/42/6 34/37/6
f 22/43/6 24/44/6 35/42/6
